<svg width="32" height="32" viewBox="0 0 32 32" fill="none" xmlns="http://www.w3.org/2000/svg">
  <!-- Background circle -->
  <circle cx="16" cy="16" r="16" fill="#3B82F6"/>
  
  <!-- Brain/AI icon -->
  <path d="M12 8C10.9 8 10 8.9 10 10C10 10.5 10.2 11 10.5 11.3C9.6 11.8 9 12.8 9 14C9 15.7 10.3 17 12 17H20C21.7 17 23 15.7 23 14C23 12.8 22.4 11.8 21.5 11.3C21.8 11 22 10.5 22 10C22 8.9 21.1 8 20 8C19.4 8 18.9 8.3 18.6 8.7C18.1 8.3 17.6 8 17 8H15C14.4 8 13.9 8.3 13.4 8.7C13.1 8.3 12.6 8 12 8Z" fill="white"/>
  
  <!-- Chart/graph lines -->
  <path d="M8 20L12 16L16 18L24 10" stroke="white" stroke-width="2" stroke-linecap="round" stroke-linejoin="round"/>
  <circle cx="8" cy="20" r="1.5" fill="white"/>
  <circle cx="12" cy="16" r="1.5" fill="white"/>
  <circle cx="16" cy="18" r="1.5" fill="white"/>
  <circle cx="24" cy="10" r="1.5" fill="white"/>
  
  <!-- Graduation cap accent -->
  <path d="M20 22L22 21L24 22L22 23L20 22Z" fill="#FCD34D"/>
</svg>
